<?xml version="1.0" encoding="UTF-8"?>
<svg width="84px" height="15px" viewBox="0 0 84 15" xmlns="http://www.w3.org/2000/svg" xmlns:xlink="http://www.w3.org/1999/xlink" version="1.1">
 <!-- Generated by Pixelmator Pro 1.5.4 -->
 <path id="Path_35" d="M8.836 3.041 L4.548 12.529 C4.319 13.138 3.936 13.677 3.436 14.093 3 14.407 2.473 14.57 1.936 14.557 1.567 14.56 1.201 14.495 0.856 14.365 0.532 14.245 0.24 14.053 0 13.805 L0.4 13.197 C0.802 13.624 1.365 13.862 1.952 13.853 2.327 13.863 2.694 13.744 2.992 13.517 3.347 13.203 3.622 12.81 3.796 12.369 L4.244 11.361 0.484 3.041 1.336 3.041 4.676 10.513 8.02 3.041 Z M13.604 11.457 C12.856 11.468 12.119 11.28 11.468 10.913 10.838 10.557 10.319 10.034 9.968 9.401 9.599 8.733 9.412 7.98 9.424 7.217 9.413 6.454 9.602 5.701 9.972 5.033 10.323 4.4 10.842 3.877 11.472 3.521 12.123 3.154 12.86 2.966 13.608 2.977 14.355 2.966 15.093 3.154 15.744 3.521 16.371 3.878 16.887 4.401 17.236 5.033 17.604 5.701 17.792 6.454 17.78 7.217 17.792 7.98 17.604 8.733 17.236 9.401 16.885 10.034 16.366 10.557 15.736 10.913 15.086 11.279 14.35 11.467 13.604 11.457 Z M13.604 10.737 C14.207 10.747 14.802 10.592 15.324 10.289 15.83 9.99 16.245 9.559 16.524 9.041 16.824 8.481 16.975 7.853 16.964 7.217 16.975 6.581 16.824 5.953 16.524 5.393 16.245 4.875 15.83 4.443 15.324 4.145 14.802 3.842 14.207 3.687 13.604 3.697 13 3.687 12.406 3.842 11.884 4.145 11.377 4.443 10.962 4.875 10.684 5.393 10.384 5.953 10.232 6.581 10.244 7.217 10.232 7.853 10.384 8.481 10.684 9.041 10.962 9.559 11.377 9.99 11.884 10.289 12.406 10.592 13 10.747 13.604 10.737 Z M27.572 3.037 L27.572 11.393 26.804 11.393 26.804 9.601 C26.541 10.171 26.112 10.648 25.572 10.969 24.989 11.305 24.324 11.473 23.652 11.457 22.711 11.51 21.787 11.181 21.092 10.545 20.435 9.835 20.099 8.886 20.164 7.921 L20.164 3.041 20.964 3.041 20.964 7.857 C20.909 8.639 21.168 9.411 21.684 10.001 22.23 10.517 22.966 10.784 23.716 10.737 24.552 10.778 25.365 10.458 25.948 9.857 26.52 9.206 26.816 8.358 26.772 7.493 L26.772 3.041 Z M31.736 4.865 C31.972 4.28 32.394 3.788 32.936 3.465 33.54 3.124 34.226 2.955 34.92 2.977 L34.92 3.761 34.728 3.745 C33.909 3.7 33.113 4.019 32.552 4.617 31.995 5.298 31.715 6.163 31.768 7.041 L31.768 11.393 30.968 11.393 30.968 3.041 31.736 3.041 Z M36.9 0.193 L39.492 0.193 39.492 9.281 45.108 9.281 45.108 11.393 36.9 11.393 Z M51.796 11.585 C50.701 11.601 49.62 11.343 48.652 10.833 47.745 10.357 46.986 9.64 46.46 8.761 45.927 7.864 45.653 6.836 45.668 5.793 45.653 4.75 45.927 3.722 46.46 2.825 46.986 1.946 47.745 1.229 48.652 0.753 49.62 0.243 50.701 -0.015 51.796 0.001 52.888 -0.016 53.966 0.243 54.932 0.753 55.837 1.232 56.594 1.949 57.124 2.825 57.661 3.721 57.939 4.749 57.924 5.793 57.939 6.838 57.661 7.865 57.124 8.761 56.595 9.637 55.839 10.353 54.936 10.833 53.969 11.344 52.889 11.603 51.796 11.585 Z M51.796 9.377 C52.423 9.386 53.041 9.229 53.588 8.921 54.116 8.622 54.551 8.181 54.844 7.649 55.154 7.08 55.311 6.441 55.3 5.793 55.311 5.145 55.154 4.506 54.844 3.937 54.551 3.405 54.116 2.964 53.588 2.665 53.041 2.358 52.423 2.2 51.796 2.209 51.169 2.2 50.551 2.358 50.004 2.665 49.475 2.964 49.04 3.405 48.748 3.937 48.438 4.506 48.281 5.145 48.292 5.793 48.281 6.441 48.438 7.08 48.748 7.649 49.04 8.181 49.475 8.622 50.004 8.921 50.551 9.229 51.169 9.386 51.796 9.377 Z M67.444 5.617 L69.812 5.617 69.812 10.161 C69.175 10.634 68.46 10.992 67.7 11.217 66.917 11.46 66.103 11.584 65.284 11.585 64.193 11.602 63.115 11.346 62.148 10.841 61.244 10.367 60.488 9.653 59.964 8.777 59.43 7.874 59.156 6.842 59.172 5.793 59.156 4.744 59.43 3.712 59.964 2.809 60.491 1.93 61.253 1.215 62.164 0.745 63.142 0.24 64.231 -0.016 65.332 0.001 66.247 -0.01 67.155 0.16 68.004 0.501 68.78 0.815 69.471 1.308 70.02 1.941 L68.356 3.473 C67.615 2.656 66.559 2.195 65.456 2.209 64.795 2.197 64.142 2.351 63.556 2.657 63.01 2.945 62.559 3.384 62.256 3.921 61.941 4.494 61.782 5.139 61.796 5.793 61.785 6.442 61.945 7.082 62.26 7.649 62.561 8.185 63.008 8.626 63.548 8.921 64.125 9.232 64.772 9.389 65.428 9.377 66.129 9.388 66.823 9.223 67.444 8.897 Z M77.636 11.585 C76.541 11.601 75.46 11.343 74.492 10.833 73.585 10.357 72.827 9.64 72.3 8.761 71.767 7.864 71.493 6.836 71.508 5.793 71.493 4.75 71.767 3.722 72.3 2.825 72.827 1.946 73.585 1.229 74.492 0.753 75.46 0.243 76.541 -0.015 77.636 0.001 78.728 -0.016 79.806 0.243 80.772 0.753 81.677 1.232 82.434 1.949 82.964 2.825 83.501 3.721 83.779 4.749 83.764 5.793 83.779 6.838 83.501 7.865 82.964 8.761 82.434 9.637 81.677 10.354 80.772 10.833 79.806 11.344 78.728 11.602 77.636 11.585 Z M77.636 9.377 C78.263 9.386 78.881 9.229 79.428 8.921 79.956 8.622 80.391 8.181 80.684 7.649 80.993 7.08 81.148 6.44 81.136 5.793 81.147 5.145 80.99 4.506 80.68 3.937 80.387 3.405 79.953 2.964 79.424 2.665 78.878 2.358 78.262 2.201 77.636 2.209 77.009 2.2 76.391 2.358 75.844 2.665 75.315 2.964 74.88 3.405 74.588 3.937 74.279 4.506 74.123 5.146 74.136 5.793 74.125 6.441 74.282 7.08 74.592 7.649 74.884 8.181 75.319 8.622 75.848 8.921 76.393 9.228 77.01 9.385 77.636 9.377 Z" fill="none" stroke="none"/>
 <defs>
  <text id="string" transform="matrix(1.0 0.0 0.0 1.0 2.0 3.0)" x="1.0" text-decoration="none" fill="#ff2600" font-size="11" y="10.0" font-family="ArialMT, Arial">Mr.</text>
 </defs>
 <use id="Mr." xlink:href="#string"/>
 <defs>
  <text id="string-1" transform="matrix(1.0 0.0 0.0 1.0 17.0 -2.0)" x="1.0" text-decoration="none" fill="#000000" font-size="14" y="13.0" font-family="Arial-BoldMT, Arial">PHƯƠNG</text>
 </defs>
 <use id="PHƯƠNG" xlink:href="#string-1"/>
</svg>
